<?xml version="1.0" encoding="UTF-8"?>
<svg version="1.1" xmlns="http://www.w3.org/2000/svg" width="500" height="500">
<path d="M0 0 C0.988293 0.00477356 0.988293 0.00477356 1.99655151 0.00964355 C4.17357544 0.02222577 6.35040161 0.04310191 8.52734375 0.06567383 C9.6429216 0.07610938 9.6429216 0.07610938 10.78103638 0.08675575 C14.71381355 0.12412685 18.64645476 0.16813326 22.57910156 0.21728516 C26.64458535 0.26672775 30.70987258 0.29284852 34.77558899 0.31371593 C37.90014973 0.33406271 41.02432255 0.37192867 44.14865112 0.41457558 C45.6477136 0.43193505 47.14686872 0.44261499 48.64602661 0.44652367 C50.7412906 0.45358977 52.83478745 0.48546077 54.9296875 0.5234375 C56.71814087 0.54128548 56.71814087 0.54128548 58.54272461 0.55949402 C61.46484375 1.08520508 61.46484375 1.08520508 63.34902954 2.95820618 C64.75740149 5.64288752 64.85260392 7.55894588 64.86328125 10.58520508 C64.86714844 11.63708008 64.87101562 12.68895508 64.875 13.77270508 C64.86339844 14.86583008 64.85179687 15.95895508 64.83984375 17.08520508 C64.85144531 18.17833008 64.86304688 19.27145508 64.875 20.39770508 C64.87113281 21.44958008 64.86726563 22.50145508 64.86328125 23.58520508 C64.85989746 24.54426758 64.85651367 25.50333008 64.85302734 26.49145508 C64.37278474 29.70032139 63.95794531 30.97044716 61.46484375 33.08520508 C58.57236491 33.49896086 56.04432852 33.66644105 53.1484375 33.65942383 C52.33617203 33.67358841 51.52390656 33.68775299 50.68702698 33.7023468 C48.09199806 33.74428884 45.4976641 33.75949429 42.90234375 33.77270508 C40.30377647 33.80174605 37.70538628 33.8362759 35.10694885 33.87519836 C33.48995454 33.89770889 31.87285055 33.91351422 30.25572205 33.92204285 C26.22975427 33.86753017 26.22975427 33.86753017 22.46484375 35.08520508 C21.27064913 38.66778893 21.30267412 41.9455322 21.296875 45.67504883 C21.2935466 46.41598282 21.2902182 47.15691681 21.28678894 47.92030334 C21.28173022 49.48625061 21.27938029 51.05220863 21.27954102 52.61816406 C21.27735504 55.01035361 21.25919005 57.4020815 21.24023438 59.79418945 C21.23730011 61.31697434 21.23531553 62.83976141 21.234375 64.36254883 C21.22718948 65.07620102 21.22000397 65.78985321 21.21260071 66.52513123 C21.22995875 70.30926867 21.64452543 72.79596283 23.46484375 76.08520508 C24.17228226 76.08885071 24.87972076 76.09249634 25.6085968 76.09625244 C32.27434664 76.13411329 38.93963286 76.19094333 45.60503864 76.26910782 C49.03187798 76.30862416 52.45845879 76.34079164 55.88549805 76.35620117 C59.82504308 76.37423657 63.76387144 76.42416939 67.703125 76.47583008 C69.55010735 76.47767303 69.55010735 76.47767303 71.43440247 76.47955322 C72.57535873 76.49927185 73.716315 76.51899048 74.8918457 76.53930664 C75.89778275 76.54818909 76.90371979 76.55707153 77.94013977 76.56622314 C80.46484375 77.08520508 80.46484375 77.08520508 82.28988647 78.96295166 C83.74816368 81.59694853 83.8378821 83.36443342 83.828125 86.36645508 C83.8271582 87.8765918 83.8271582 87.8765918 83.82617188 89.41723633 C83.81005859 90.46266602 83.79394531 91.5080957 83.77734375 92.58520508 C83.78056641 93.63063477 83.78378906 94.67606445 83.78710938 95.75317383 C83.7251932 104.54527136 83.7251932 104.54527136 81.46484375 108.08520508 C78.27109511 109.6820794 74.80741389 109.24144545 71.29907227 109.24633789 C70.45503845 109.2513028 69.61100464 109.2562677 68.74139404 109.26138306 C65.94217115 109.27601898 63.1430049 109.2828085 60.34375 109.28833008 C58.40323382 109.29407967 56.46271767 109.29983742 54.52220154 109.30560303 C50.45091486 109.31611662 46.37964796 109.32195717 42.30834961 109.32543945 C37.08471515 109.33092967 31.86134064 109.35496744 26.63778782 109.38341141 C22.62899505 109.40200849 18.6202653 109.40724179 14.61143303 109.40877533 C12.6852571 109.41180824 10.75908244 109.41985814 8.83294868 109.43296051 C6.14176598 109.44996246 3.45122397 109.4481554 0.76000977 109.44165039 C-0.03957657 109.45086517 -0.8391629 109.46007996 -1.66297913 109.46957397 C-7.07074071 109.42850199 -7.07074071 109.42850199 -9.24074364 107.82443142 C-10.84286211 105.67175875 -10.90585068 104.55487585 -10.8959198 101.89009094 C-10.90004379 101.03613739 -10.90416779 100.18218384 -10.90841675 99.30235291 C-10.89763092 98.36871414 -10.88684509 97.43507538 -10.87573242 96.47314453 C-10.8761705 95.48759583 -10.87660858 94.50204712 -10.87705994 93.4866333 C-10.87496718 90.22371726 -10.85161278 86.96131279 -10.828125 83.69848633 C-10.82253079 81.43833192 -10.81825987 79.17817387 -10.81526184 76.91801453 C-10.80379935 70.96505719 -10.77431991 65.01231893 -10.7411499 59.05944824 C-10.71047937 52.9866838 -10.69676295 46.913884 -10.68164062 40.84106445 C-10.6494517 28.92234833 -10.59823826 17.00379491 -10.53515625 5.08520508 C-11.19515625 4.75520508 -11.85515625 4.42520508 -12.53515625 4.08520508 C-8.74823008 -0.06238072 -5.44295238 -0.03615854 0 0 Z " fill="#ffffff" transform="translate(163.53515625,185.914794921875)"/>
<path d="M0 0 C11.88 0 23.76 0 36 0 C36.33 10.89 36.66 21.78 37 33 C44.78869996 35.61902104 44.78869996 35.61902104 52.5 36.9375 C66.05303079 38.88712392 78.72130542 47.03399471 88 57 C88 57.66 88 58.32 88 59 C88.66 59 89.32 59 90 59 C100.74448663 72.74913953 108.23230531 89.26169569 108 107 C102.74894558 107.02464928 97.49792455 107.04283568 92.24682617 107.05493164 C90.45905979 107.05997218 88.67129755 107.06680454 86.88354492 107.07543945 C84.31948832 107.0875173 81.75548603 107.09323094 79.19140625 107.09765625 C77.98515343 107.10539818 77.98515343 107.10539818 76.75453186 107.11329651 C74.83598285 107.11349215 72.91754632 107.06201983 71 107 C69.27599896 105.27599896 69.50239678 102.78892552 69.1875 100.4375 C68.31854574 94.87221278 66.71905738 90.89430328 64 86 C64 85.34 64 84.68 64 84 C63.34 84 62.68 84 62 84 C62 83.34 62 82.68 62 82 C61.43667969 81.72414063 60.87335938 81.44828125 60.29296875 81.1640625 C58.75533351 80.38345722 57.23646222 79.56482303 55.73828125 78.7109375 C49.81004204 75.44611011 45.7619114 74.35600844 39 75 C37.11870075 76.88129925 37.7798508 80.11336712 37.71875 82.625 C37.70034058 83.28709473 37.68193115 83.94918945 37.66296387 84.63134766 C37.60405303 86.75413915 37.55130076 88.87701174 37.5 91 C37.43253672 93.79184495 37.35886935 96.58342105 37.28125 99.375 C37.25095703 100.62023437 37.22066406 101.86546875 37.18945312 103.1484375 C37 106 37 106 36 107 C33.58898783 107.17229666 31.20367672 107.28379556 28.7890625 107.3515625 C27.70315323 107.38629166 27.70315323 107.38629166 26.5953064 107.42172241 C25.06035536 107.46942943 23.52532554 107.51465515 21.99023438 107.55761719 C19.6416224 107.62452645 17.29354864 107.70235084 14.9453125 107.78125 C13.455749 107.82618311 11.96616598 107.87047494 10.4765625 107.9140625 C9.77334869 107.93796051 9.07013489 107.96185852 8.34561157 107.98648071 C5.24918166 108.06595421 2.96733297 107.98911099 0 107 C0 95.12 0 83.24 0 71 C11.625 70.75 11.625 70.75 15.25634766 70.70214844 C21.38054486 70.50675004 25.4415226 70.27073298 30 66 C32.82985121 62.40356085 32.33121055 57.94450986 32.3125 53.5625 C32.32861328 52.81162109 32.34472656 52.06074219 32.36132812 51.28710938 C32.36534557 46.71927904 32.03561339 43.64405878 29 40 C25.33674969 37.39484561 22.73311435 36.60783728 18.26171875 36.48828125 C16.81865356 36.43861206 16.81865356 36.43861206 15.34643555 36.38793945 C14.13898682 36.36304443 12.93153809 36.33814941 11.6875 36.3125 C7.830625 36.209375 3.97375 36.10625 0 36 C0 24.12 0 12.24 0 0 Z " fill="#ffffff" transform="translate(261,187)"/>
<path d="M0 0 C1.56047445 0.00015913 3.12095416 0.00585397 4.68139648 0.01586914 C5.5012352 0.01728409 6.32107391 0.01869904 7.16575623 0.02015686 C9.79470406 0.0257725 12.42356797 0.0383276 15.05249023 0.05102539 C16.8304838 0.05603838 18.60847869 0.06060163 20.38647461 0.06469727 C24.75434569 0.07574701 29.12215371 0.09302208 33.48999023 0.11352539 C32.0819706 16.19675473 30.55359554 32.07690802 18.48999023 44.11352539 C16.27514648 45.35571289 16.27514648 45.35571289 14.48999023 46.11352539 C14.0169043 45.6662207 13.54381836 45.21891602 13.05639648 44.75805664 C5.71044612 38.04216829 -1.71441175 34.15906034 -11.12719727 31.00805664 C-13.51000977 30.11352539 -13.51000977 30.11352539 -16.51000977 28.11352539 C-16.05110352 27.62883789 -15.59219727 27.14415039 -15.11938477 26.64477539 C-8.296445 19.19114371 -5.17663232 13.53165666 -4.68579102 3.33618164 C-4.39438885 -0.34843679 -3.85686345 0.12474379 0 0 Z " fill="#ffffff" transform="translate(335.510009765625,186.886474609375)"/>
<path d="M0 0 C0 0.33 0 0.66 0 1 C-1.670625 1.433125 -1.670625 1.433125 -3.375 1.875 C-7.00291092 2.69241329 -7.00291092 2.69241329 -9 5 C-9.66 4.34 -10.32 3.68 -11 3 C-7.46647659 -0.87004945 -5.02196482 -1.22155901 0 0 Z " fill="#2D2C2D" transform="translate(162,187)"/>
</svg>
